<svg width="36" height="37" viewBox="0 0 36 37" fill="none" xmlns="http://www.w3.org/2000/svg">
<path d="M20.25 5C12.795 5 6.75 11.045 6.75 18.5H2.25L8.085 24.335L8.19 24.545L14.25 18.5H9.75C9.75 12.695 14.445 8 20.25 8C26.055 8 30.75 12.695 30.75 18.5C30.75 24.305 26.055 29 20.25 29C17.355 29 14.73 27.815 12.84 25.91L10.71 28.04C13.155 30.485 16.515 32 20.25 32C27.705 32 33.75 25.955 33.75 18.5C33.75 11.045 27.705 5 20.25 5ZM18.75 12.5V20L25.125 23.78L26.28 21.86L21 18.725V12.5H18.75Z" fill="#ffffff"/>
</svg>
